<svg xmlns="http://www.w3.org/2000/svg" viewBox="1 0 498 618">
  <style>
    :root{--hohenstaufen-red: rgb(225, 9, 21);--hohenstaufen-gold: rgb(255, 216, 1);--hohenstaufen-black: black;stroke-linejoin:round;stroke-linecap:round}.body,.paw{stroke-width:4px;stroke:var(--hohenstaufen-black)}.body{fill:var(--hohenstaufen-red)}
  </style>
  <path fill="var(--hohenstaufen-gold)" stroke="var(--hohenstaufen-red)" stroke-width="16" d="M8.3 7h483v363.3h0a241.7 241.7 0 01-241.6 240A241.7 241.7 0 018.3 368.4V7z"/>
  <path d="M139 129.8c-4.9-3.4-25.5-16-27-21-1.6-6 5.6-11.8 4.7-18.3-.4-2.6 3.4-9.7 3-9.4-5.1 4-10.6 4-17.3 3.8-5.3 2-3 5.2-7.5 7-2.3.8-8.6-2.7-9-2.7-4.3-.7-6.2 2.8-10 .7-1.7-1-6.8-3.9-6.4-3.5 1.6 1.5 1.5 3.9 3 5.5 1.7 2.2-2 4.7-1.7 7.6 1 7.2 5.9 7.4 4.7 14.4-.6 3.3-1.2 6.5-2.4 9.7-.5 1.3-3.5 4.5-2.1 4.8 4.5-3 11.4 1.6 13.2 1.4 4.4-.4 7-8.2 13.6-4.6 2.4 1.3 2.6 5.2 4 7.5 2.9 4.4 4 3.5 5 8.5.4 1.4.5 5.7 2.2 7.8a45 45 0 0012.6 5.9c4.3 1.2 2.7-7 5-10.1 3.7-5.1 8.3-9.6 11.5-15" class="paw"/>
  <path d="M84.3 233.9l1.7-7.7c-8.4-1.9-6-2.6-12.8-10.8-1.6-.9-5.8 1.7-7.7 1.6-4.6-1.2-8.5-2.9-14.2-.6-.6-2.5 2.8-4.7 3.5-6.6 1.4-3.5-1.4-7.9.3-11.2 1.4-2.9 5.4-3 7.6-5.6-.2-1.8-.2-4.7-.2-6.3 1.8-4.2 1.4-7.7-.7-11.5-1.8-3-1.4-3.8-1.4-5.8 2.1-.1 3.6 0 4.6.8 2.9 1.8 4.8 5 7.7 6.7 3.5 2 8 1.5 11.3 3.7 3 2 3.6 9.6 7 8.3 13-5.3 27.7-16.5 33.1-29.7 3.7-9 3-16.6 10.5-24.4 3.4-3.6 23.3-16.8 24.9-20.5 1.1-2.6-4.6-6-2.8-8.2 9.5 1.7 27.5-4.6 29.5-8.5-15-1-45 4.7-47.9-17-.6-4.4-2.9-9.2-1.2-13.4 6.6-6.5 5 14.1 12.7 19.7 9.3 2.7 9.7 4.5 34.3 3.7-9.5-12-17.4-5.3-20.6-7.7-1.8-1.3-2.7-3.8-3.3-6-.2-.8.8-1.6 1-2.4 3-10 8.4-7 15.7-10.5 4-1.9 7.8-5 12.3-6 2.6-.5 5.7-1.3 8.2-.2 4 1.7 6.3 5.9 10 8.2a61.2 61.2 0 0024.4 8.2c3.2.4 8.4-2.2 9.7.8.7 1.7-1.4 3.6-2.7 5-2.7 2.7-5.9 5-9 7.2-1.4 1-5.6 1.5-5.5 4.5.2 5 6 8.1 8 12.7.9 2 3.4 6.1 1.2 6.4-4.6.6-8.5-4.8-13.2-5-1.5 0-.2 3.2.5 4.6 10.6 18.3 4.8 24 28.8 23.3 20.5-1.3 40.8-16.1 60.2-21 15-3.7 33.7-1.5 48.8.6 14.3 2 26.1 4.2 27.8 4 1.5-.1 10.6-.2 14.3-6.6 1.9-3.3-.4-10.3-1.9-12.3-6.6-6-16.4-10.9-33.2-7.9-32.3 7.3-50 12-80.8 11-12-.5-23.4-3.6-31.7-13.2-8.7-10.3-7.8-28 3.9-35.5 7.1-4.6 19.4-2.8 27.3-2.8 13.4 0 27.4-.1 40.6-2.2 6.2-1 11.8-4.5 17.8-5.8.8-.1-18 11-27 15.4-3.2 1.1-12.6 2-13.5 5-.2.7.4 1.3.7 1.9 1.5 2 3.6 3.8 4.6 6 .7 1.6 2.2 4.7.5 5.2-2.3.7-4.3-2.1-6.4-3.3-8.8-5.2-30.7-16.1-38-5.9-5.7 18 9.5 23.8 25.8 25 20.5-.3 41.4-1.6 60.9-7.8 15.5-2.8 39.9-8.2 55 .4 13.5 7.4 17.1 30.8 3.8 40.6-8.3 6.2-20 1.4-16.3 15.8 1.4 5.5 3 11 4.6 16.4.2 1-.2 2.4.7 2.8 5.6 2.2 12 2 17.4 4.6 4.8 2.3 2.2 4.5 2.8 7.4.9 3.9 2 14.7 4.9 17.6 4.5 4.8 12 .6 13.2 9.7.4 2.4 2.2 5.6.5 7.4-1.7 2-5.3.3-7.9.8-2.3.4-4.5 1.4-6.9 2-.5.2-1.8-.3-1.7.3 0 3.1 3.3 6.3 2 9.2-.6 1.2-7.7 10.4-10 7.1-1-1.6-.7-4-2-5.4-1-1-3.2-.2-4.3-1.2-1.4-1.3-1-4-2.6-4.9-2.7-1.3-6.2.4-9-.8-3.8-1.5-2.5-5.8-7-5.8-2.7 0-5.7 3.1-7.7 1.5-1.7-1.3 1.1-4 2.3-5.9 5-8 7.3-9.4 15.7-10.1 2-.2-1.1-3.9-2-5.7-1.7-3.8-3.2-13.3-6.6-10.7-1.6 1.2-1.9 4-3.8 4.6-1.7.4-3.3-3.1-4.9-2.3-1.5.8 1.2 4.8-.5 5-2 .4-3.2-2.5-4.3-4.3-1.7-2.6-1.4-6.2-3-8.9-2.4-3.7-5.2-7-7.7-10.5-1.4-1.8-3.2-6-5.1-4.8-2.8 1.8-20 14.2-22.3 19.4-1 2.5 1.2 5.4 1 8.2-.2 7-.3 14.3-2 21.2-.2.9-2.3 0-2.8-.8-2.5-3.9-3.3-8.9-6.1-12.5-.8-1-1.7-3.4-2.6-2.6-2 1.9-1.4 5.3-2.8 7.7-1.6 2.8-4.4 4.9-6.1 7.6-.8 1.3-.4 3-1.3 4.1-1 1.3-3 1.5-4 2.8-1 1.3 1.7 2.5 2.7 3.6 1.8 2 4.2 3.4 5.7 5.6 1.6 2.5.1 11.7-2.8 13.3-3.8 2-11-7.8-16.1-7.1-4.4.5-6.2 5-10.8 4.8-2.5-.1-5-3-7.4-2-1.3.6-2 2.3-2.8 3.5-.4.7-1.4 2.9-1.2 2 1.2-4.8 3.9-10.8 1.2-16.3-3.4-7-9-.7-12.5-8.6-.7-1.6.7-3.6 1.8-4.9 1.2-1.3 3.1-1.5 4.6-2.3 3.4-1.8 6.4-4.7 10.2-5.6 3.8-1 8.5 3.5 11.8 1.3 3.8-2.6 7.1-6 10.4-9.2 1.7-1.6 4.1-3 4.4-5.4.1-1.3-2.3-1.3-3.6-1.5-4-.7-8-.4-12-1.3-1.3-.3-4.2-1-3.3-2 4.8-5.3 12-8 17-13 3.6-3.6 5.6-8.5 8.5-12.6 1.5-2 3.6-3.8 4.9-6 .4-.9 1.1-2.6.2-2.9-8.1-2.6-15.7 7.6-21.3 11.2a227.4 227.4 0 01-79.2 32.3c-10 2-20.2 2.7-30.2 5-3.7.8-7.2 2.4-10.7 4.1-1.5.8-1.3 1.9-4 3.3-1.2-3-.4-7.5-1.1-9.9-.7 2.2-1 4.3-3.1 6a40 40 0 01-16 7.4c-2.8.6-4.7 1-6-1.8-.4-3.6 2.4-3.4 2.6-6.6-2.5.7-5.6 5.5-8.9 7-6.3 2-11.7 4.8-18 5.6-.5-4 6.4-7.2 6-11.4-.3-2.5-2.9 2-7.9 3.8-8.5 3.2-17.3 5.9-25 7.2-1.4.3 1.1 8.3-.3 11.2-3 4.3-4 7.9-11 8.3l-3.4 7.3z" class="body"/>
  <path d="M192.8 78.6c1 2.5 6.3 1.1 8.1-1 4.6-5.1-14.8-14.2-8.1 1z"/>
  <g>
    <path d="M148.5 302.5c-9-4.6-19.7-8.2-23-18.9-2.5-8.1 1-16.2-2.6-24.7-1-2.3-2-6-4.8-6.7-3.6-.9-1.4 8.3-2.4 9.5-1.9 2-5.6-.2-8.3-.4-3.8-.3-7.5-1-11.3-1-2.1-.1-10.8.9-11.4 2-4.2 8.2 9.4 11.4 9.8 18.2.1 2.8-2.6 2.7-3.8 4-2 2-2.4 12.3-2 14.3.4 1.8 3.7-1.4 5.5-1.6.7 0 6.6 1.3 8 .6 1.4-.8 2-12.2 6.5-7.6 8.3 8.5 9.5 20.5 20.1 27.5.6.4 6.3 5.2 8.4 4.7 1.1-.3 1.8-3.4 2.3-4.2 1.1-2.2 2.5-4.3 3.8-6.4 1.7-3 3.8-6.3 5-9.5" class="paw"/>
    <path d="M281 330.3c-15.7 5.6-34.5 10.9-51.2 10.4-7.4-.1-15.4-.9-22.8-1.5-4-.3-7.7-2.5-11.6-2.2-6.5.5-20 17.6-28.9 21.7-2-2.6.8-13-.3-13-1.6-.3-5.6 5-6.7 6.2-3.8 4.3-11.4 15.4-12.2 13.8-2-3.9 4.7-11.8 2-14.3-1.2-1.1-16 6.4-18.5 7.9-3.2 1.9-9.8 1.7-12.2 4.5-1.9 2.2 2.7 6.4 1 8.8-11.3 15-14 6.7-21.8-.6-1-1-21.5 1.8-21.1-4.5 0-1.5 2-2.3 2.6-3.7 1.8-4 1.4-8.4 6.2-10.5 1.7-.8 4 .8 5.4-1.5 1.6-2.8-3.6-5.8-3.6-9 0-1 2 0 2.9 0 2.5 0 5.2-.4 7.6.4 10 3 10 8.4 19.3 1.3a107.8 107.8 0 0031.5-40.5c3.7-7.3 11.5-11.7 17.6-17.4 4-3.6-5.1-8.3-6.6-10.5-.3-.4 6.2.6 8.4.8 6 .6 12.1 0 17.8-1.7 1.7-.5-.8-3.6-2.2-4.7-5.3 2-13.1.8-19.3 0-13.7-1.7-37.7-14.2-28.7-32.4.8-1.4 3.4.8 4.5 2 4.6 4.4 2.9 9.6 6 14.2 5.2 8 18 9.7 27.6 11.4l7.8.9c1.5.1 4.8 1 4.5-.6-3.5-15.9-31.7 1.2-24-18.1 2.2-5.4 11.4-2.3 15.2-4.7 4.6-2.9 5.3-6 9.8-7.7 7.6-2.9 22.1 6 29.3 7.7 5.3 1.3 19.2 2.8 19.7 4 .4.9-13 6-13.3 6.9-1.3 6.2 11.2 9.4 8 16.2 0 .2-12.6-1.1-13.6-.1-2.7 2.6 0 7.6 1 11.2 2.5 9.5 15.1 15.9 24.7 16.5 24.9 1.7 47.6-12.3 72.5-11.7 6.5.1 18.1.4 24.3 3.8 6.3 3.4 11.3 8 18.8 8.5 11.3.7 24.8 1.3 31.8-9.7 9.1-14.3-13.7-22-24.3-20.5a1270 1270 0 00-63.8 11.3c-7 1.4-13.8 3.2-21 3.3-16.8.4-31.2-1.4-30.8-22.5.4-15.5 29-13.4 38.6-13.6 5.2 0 6-.2 11.9-.8 4.5-.6 9-2.5 13.4-1.6 1.5.4-1.5 3-2.7 4-.7.7-12.3 7.2-14.1 9.1-1.4 1.5.9 4.5-.4 7.4-2.8-1.2-5.4-3-7.6-4.2-5.8-2.9-10.7-3-18-2.8-6.9.2-11.5 7.5-6.4 13.5 4 4.8 21.3 4.1 29.6 2.5 24.8-4.7 49-13.3 74.5-13.3 11.4 0 24.6 1.3 31 9.3 8.8 13.3.3 29.4-15 37-5 2.5-11 3.6-16.4 4.3-2.3.3-4.7.5-7 1-.5 0-1.7 0-1.4.4 5.2 7 12.8 8.5 20.5 11.2 2.8 1 7.5.2 8.6 3 3 8-.6 25.4 7.1 32 2.7 2.1 10.2 3 11.6 7.2.7 2.4.4 5.1 1 7.6.3 1.7 2.3 7 1.6 6.9-4-.5-7.2-5.8-11-4.6-4.4 1.3-7.8 8.2-11.2 11-1 1-1.8 3.9-2.8 3-5.3-5.4-5.2-9.7-13.5-12.2-3.4-1-9.4-1-12.4-.7-1.4.1-3.5 2.4-4 1.1-.7-1.7 1.7-3.2 2.4-5 1.1-3.2-2.6-11.5 3.3-13.1 4.5-1.2 13 4.6 13.2-2.6.1-1.5 1.2-3.3.3-4.6-2-3-5.5-4.5-8.1-6.9-2-1.8-4.7-7-6.4-4.9-2.5 3.2-1.3 9-4.6 11.4-1.4 1-2.6 4.2-4 3.2-.6-.3.7-5.8.6-7.9 0-5.3-4-19.2-9.8-21.3-2.4-.9-8.9 2.8-9.1 3-8.5 5.3-13.2 15.8-16 25-.6 2.3 1.1 9.5-.3 10.6-2.4 1.8-6.8-7.7-8.3-6.7-8.6 5.3 2.5 15-1 22-1.6 3.2-5 5-7.9 6.8-2.3 1.5-4.4-4-7.2-4-1.7-.2-2.7 2-4.2 2.9-2 1.1-14.5 2.8-16.6 0-3-4.1 2.6-9.1 2-13-.5-3-10.3-4.5-8.2-7.3a20 20 0 0113.7-7c3.8-.5 9.9 2.2 13-.8 1-.9 6-9.2 3.3-10.3-3.8-1.4-9.4.4-13-1.4-1.5-.8 1.5-3.2 2.7-4.4 4.4-4.2 9-8.1 13.5-12.3.7-.7-14.2-.7-18.2.8z" class="body"/>
    <path d="M199.9 246.4c-3.6-.2-8.1 7.7-4.7 9 2.4 1 8.6 1 9.4-2.3.6-2.5-1.5-6.5-4.7-6.7z"/>
  </g>
  <g>
    <path d="M193.6 455c.6-1.9-3.8-1.4-5.8-2-5.1-1.4-10.8-1.7-15.2-5-6-4.5-9-5.4-11.4-11-2.2-5-.4-14.6-3.3-17.3-8.3-2.2-6.3-5.2-9.8-8.6-.7-.8.2 2.2.2 3.2 0 2.7 1.4 6-.3 8-1.3 1.6-3.4.5-6-.4-2 2-.5 3-2.6 4.9-3.2 2.6-11.5.4-14.9.4-1.5 0 2.7 1.6 4.2 2 4.8 1.4 7.8 1.5 7.3 7.3-.4 4-2.5 8.3-4 12.1-.7 1.6-3.2 2.8-2.6 4.5.2.5.7-.8 1.2-1.1 1.3-.7 2.5-1.8 4-1.9 2.9 0 5.2 3.3 8.6 2.8 1-.1 8.4-3 10.2-2.1 8.7 4.4 11 16 20.2 20.9 2.4 1.2 5.8 4 7.7 2.1 5.4-5.2 10.1-11.6 12.3-18.7z" class="paw"/>
    <path d="M267.9 450.2c-15 1.4-35.7-1.2-36-11.3-.2-5.1 5.6-3.8 8.9-6.8.2-1.2-5-3.7-5.6-6.4 1.6-1.3 10.1-3.5 9.6-3.7-3-1.6-9.6-1.4-12.8-2.8-6.3-2.9-16.9-10.6-24.2-8.5-2 .6-3.3 2.7-5.3 3.3-3 1-9.4-.9-11.2 3.8-1.3 8 13.6 6.4 10.7 13.5-10 0-19.7-9-23.5-13.7-1.7-2.3-2-8-8.3-8.5-5.1 9.3 6.4 19.4 18.8 25.2 2.1 1 14.1 2.5 15 3.8-1 5.3-15.2 2.4-18.8 2.2-.3 0 11.7 4.9 12.2 8.9.8 5.8-6.6 11.4-9 14.8-6.3 9.2-16.3 24.5-25.2 26-8.7 1.5-24 3-24.9 4.2-.4.8 11.1 5.9 9.5 9.2-1 2.2-4.2 3.3-5 5.8-.5 2 1 4.3.8 6.5-.3 2.1-2.9 5.9-1 6.8 8.7-.3 11.7-2.6 18.1-2.1 3.7.3 5.8 4.8 9.2 3.5 2.9-1 6.8-6.4 7.7-9.3 1-3.3-5.8-7.2-3.8-10.7.7-1.4 11.2-5.4 15.5-7.2 2-.9 8.3-4.3 10.6-7.1-.3 1-6.7 11.5-6 11.6 2.7.6 4.4-3 6-4.2 1.4-1 11.6-7 13.2-7.8 10.3-5.2 19.3-3.4 29.9-5.3 19.6-2 34-10.7 38.1-13 2.4-1.2 9.9-6.2 10.2-5.6a41 41 0 01-4 11.9c-4.9 9.1-17 17.2-21.8 26 8-1.8 8.6-2.9 14-3.9-1 3.6-2 5.8-2 5.8-2.6 8-4.7 3.5-12.3 5.1-3.5.8-7.1 1.7-10 3.7-2.2 1.6-6.9 9.6-6.1 9.9 5-.7 11.8-2 13 5 .4 2 .6 15.4 1.2 15.7 5 2.3 8.5-6 12.8-7 5-1.2 10.6 7.4 13.6 4.7 2.8-2.4 5.3-5.6 6.8-9-.7-9.8-2.7-11-6.5-13.4-1.8-3.7 1.8-13.1 3.1-15 .3-.5 7 7.5 7.2 7.2 2.4-2.6 1.5-13.4 2.3-16.9 1.5-11 3.8-15.6 10.4-22.1 8.8 6.5 28.3 13.5 27.4 21.9-.3 5.6-6.9 2.4-9.5 4.7-2.8 2.3-11 8.8-9.6 13.7 1 3.5 13.2-.4 13.4.3 1.4 3.8-1.4 15.2 4.3 17 1.7.6 2.8-3.7 4-5 6.4-3.7 6.2-1.6 10.6-9.8 1.1-2 6.6-4.3 8.9 0 .7-3.9 5.6-10.1 4-14.4-1.7-4.5-6.3-2.5-8.1-6.9-1.3-3 3.4-16.8 2.5-17.8-3-3.3-13.8-10.2-12.7-11.1 11.6-10.4 36.9-7.6 31.5-32.4-4.6-21.6-34.8-23.5-52.2-18-5.1 1.7-25.5 10-30.9 11.6-8.2 2.4-18.2 6.1-26.5.7-4.7-3-7.5-12.6-2-14.9 7.5-3.1 22.3 3.8 23.6 2.9 1.5-1.2-2.2-4.1-1-5.5 1.7-1.8 27.4-6.3 26.7-7.5-.8-1.5-18.2-.8-23.2-1.2-12.7-1-30.7-5.3-39.5 7.8-8.5 12.5 11 28.6 22 29 24.8 1 57.2-15.9 72-16 10.3-.6 20.8 7 19.9 18.2-.8 9.3-11 12.5-19.2 13.2-5.4.5-10.3-5.7-15.7-7.9a56 56 0 00-35.8-1.4 136 136 0 01-30 6z" class="body"/>
    <path d="M213.4 417.5c-5.2-.2-6 4-3.8 7.3 1.1 1.8 7 .7 7.6-1.9.5-2-1.2-5.2-3.8-5.4z"/>
  </g>
</svg>
